<?xml version="1.0" encoding="utf-8"?>
<!-- Generator: Adobe Illustrator 24.2.0, SVG Export Plug-In . SVG Version: 6.00 Build 0)  -->
<svg version="1.1" id="Layer_1" xmlns="http://www.w3.org/2000/svg" xmlns:xlink="http://www.w3.org/1999/xlink" x="0px" y="0px"
	 viewBox="0 0 382.5 412.5" style="enable-background:new 0 0 382.5 412.5;" xml:space="preserve">
<path d="M168.2,300.6c10.4,9.7,13.7,23.5,7.1,30.8c-6.2,7-19.1,5.5-29.4-3.2c-3-0.1-5.9,0.1-8.7,0.5c-13.4,1.5-35.9,4.2-64.4-22.2
	c-0.7-0.7-1.5-1.5-2.2-2.2c-14.9-14.3-23.6-28.7-26-42.9c-0.8-4.7-0.8-9.2,0-13.3c0.1-0.4,0.2-0.7,0.2-1.1l0-0.2
	c1.3-5.7,6-9.2,12.4-9.3c6.7-0.1,14.3,3.2,20.4,9.1c4.5,4.5,7.8,9.8,9,15.2l2,8.6l0,0.2c0.2,0.9,1.7,3.8,6.6,8.3l1,1
	c6.7,6.1,9.3,6.4,20.7,5.1c10.8-1.2,28.8-3.4,49.5,14C167,299.4,167.6,299.9,168.2,300.6z" class="secondary-fill"/>
<path d="M149.8,392.5h-9.7c-8.9,0-16.1-7.2-16.1-16.1v-72.8c0-8.9,7.2-16.1,16.1-16.1h9.8c8.9,0,16.1,7.2,16.1,16.1v72.8
	C165.9,385.3,158.6,392.5,149.8,392.5z" class="secondary-fill"/>
<path d="M248.4,392.5H246c-10.8,0-19.6-8.8-19.6-19.6v-65.8c0-10.8,8.8-19.6,19.6-19.6h2.4c10.8,0,19.6,8.8,19.6,19.6v65.8
	C268.1,383.7,259.3,392.5,248.4,392.5z" class="secondary-fill"/>
<path d="M306,193c24.2-51.7-3-111.5-41-140c-30.1-22.6-63.9-23.3-75-23c-9.5,0.2-41.1,1.4-69,23c-37.4,28.9-60.1,88.3-36,139
	c29.1,61.3,104.3,62.9,110.3,62.9C200,254.9,277.4,254,306,193z" class="secondary-fill"/>
<path d="M131.3,99.2c9.3-23.2-1.2-50-15.7-62.8C104.1,26.3,91.2,26,86.9,26c-3.6,0.1-15.7,0.7-26.4,10.4c-14.3,13-23,39.7-13.8,62.4
	c5,12.4,13.6,19.3,21.7,23.2c12.3,5.9,26.6,6.1,39.2,0.9C116.4,119.2,126,112.3,131.3,99.2z" class="secondary-fill"/>
<path d="M241.4,367.6h-89.9c-14.7,0-26.6-11.9-26.6-26.6V232.6c0-14.7,11.9-26.6,26.6-26.6h89.9c14.7,0,26.6,11.9,26.6,26.6V341
	C268.1,355.7,256.1,367.6,241.4,367.6z" class="secondary-fill"/>
<path d="M223.7,349c1.1-4.3,1.7-8.9,1.7-13.4c0-22.5-13.3-48.7-29.9-48.7s-29.9,26.1-29.9,48.7c0,4.6,0.6,9.1,1.7,13.4
	c7,2.9,16.1,4.6,28.2,4.6S216.7,351.8,223.7,349z" class="main-fill main-stroke"/>
<path d="M336.4,98.4c9.3-23.2-1.2-50-15.7-62.8c-11.5-10.1-24.4-10.4-28.7-10.4c-3.6,0.1-15.7,0.7-26.4,10.4
	c-14.3,13-23,39.7-13.8,62.4c5,12.4,13.6,19.3,21.7,23.2c12.3,5.9,26.6,6.1,39.2,0.9C321.6,118.4,331.2,111.5,336.4,98.4z" class="secondary-fill"/>
<path d="M61.7,88c6.3,8.5,18.4,7.1,26.3,1.5c6.2-4.4,9.2-11.2,10.2-13.4c0.8-1.9,3.3-8.3,2.1-15.4c-1.5-9.5-9.3-18.2-19.6-16.9
	c-5.6,0.7-10.1,4.1-13.3,7.8c-4.9,5.5-8.2,13-9.1,20.4C57.7,77.1,58.1,83.2,61.7,88z" class="main-fill main-stroke"/>
<path d="M312.3,90.7c10.5-1.2,15.4-12.4,14.5-22c-0.7-7.6-5.1-13.6-6.5-15.5c-1.3-1.6-5.6-7-12.3-9.6c-9-3.4-20.4-1.1-24.4,8.5
	c-2.2,5.2-1.5,10.8,0.1,15.4c2.3,7,7.2,13.6,13.1,18.1C300.8,88.7,306.3,91.4,312.3,90.7z" class="main-fill main-stroke"/>
</svg>
