<?xml version="1.0" encoding="utf-8"?>
<!-- Generator: Adobe Illustrator 24.2.0, SVG Export Plug-In . SVG Version: 6.00 Build 0)  -->
<svg version="1.1" id="Layer_1" xmlns="http://www.w3.org/2000/svg" xmlns:xlink="http://www.w3.org/1999/xlink" x="0px" y="0px"
	 viewBox="0 0 382.5 412.5" style="enable-background:new 0 0 382.5 412.5;" xml:space="preserve">
<path d="M213.9,291.8c-10.3-9.8-13.4-23.6-6.8-30.9c6.3-6.9,19.2-5.3,29.4,3.5c3,0.1,5.9,0,8.7-0.4c13.4-1.4,35.9-3.8,64.2,22.9
	c0.7,0.7,1.5,1.5,2.2,2.2c14.7,14.5,23.3,29,25.5,43.2c0.7,4.7,0.7,9.2-0.1,13.3c-0.1,0.4-0.2,0.7-0.2,1.1l0,0.2
	c-1.4,5.7-6.1,9.1-12.5,9.2c-6.7,0-14.3-3.4-20.3-9.3l0,0c-4.5-4.5-7.7-9.9-8.8-15.3l-1.9-8.6l0-0.2c-0.2-0.9-1.7-3.8-6.5-8.4l-1-1
	c-6.6-6.2-9.2-6.5-20.6-5.3c-10.8,1.1-28.8,3.1-49.3-14.5C215.1,293,214.5,292.5,213.9,291.8L213.9,291.8z"/>
<path d="M297,193c24.2-51.7-3-111.5-41-140c-30.1-22.6-63.9-23.3-75-23c-9.5,0.2-41.1,1.4-69,23c-37.4,28.9-60.1,88.3-36,139
	c29.1,61.3,104.3,62.9,110.3,62.9C191,254.9,268.4,254,297,193z"/>
<path d="M232.4,367.6h-89.9c-14.7,0-26.6-11.9-26.6-26.6V232.6c0-14.7,11.9-26.6,26.6-26.6h89.9c14.7,0,26.6,11.9,26.6,26.6v108.4
	C259.1,355.7,247.1,367.6,232.4,367.6z"/>
<path d="M66.1,351"/>
<path d="M141.5,399H132c-8.9,0-16.1-7.2-16.1-16.1v-72.9c0-8.9,7.2-16.1,16.1-16.1h9.5c8.9,0,16.1,7.2,16.1,16.1v72.9
	C157.5,391.8,150.3,399,141.5,399z"/>
<path d="M239.4,399.5H237c-10.8,0-19.6-8.8-19.6-19.6v-65.8c0-10.8,8.8-19.6,19.6-19.6h2.4c10.8,0,19.6,8.8,19.6,19.6v65.8
	C259.1,390.7,250.3,399.5,239.4,399.5z"/>
<path d="M320.2,85c7.7-17.4-1-37.6-13-47.2c-9.5-7.6-20.2-7.8-23.7-7.8c-3,0.1-13,0.5-21.8,7.8c-11.8,9.8-19,29.8-11.4,46.9
	c9.2,20.7,33,21.2,34.9,21.2C286.7,105.8,311.2,105.5,320.2,85z"/>
<path d="M122.9,85c7.7-17.4-1-37.6-13-47.2c-9.5-7.6-20.2-7.8-23.7-7.8c-3,0.1-13,0.5-21.8,7.8c-11.8,9.8-19,29.8-11.4,46.9
	c9.2,20.7,33,21.2,34.9,21.2C89.4,105.8,113.9,105.5,122.9,85z"/>
<path d="M226,350.8c1.5-5.6,2.3-11.5,2.3-17.4c0-29.2-18.2-63.2-40.8-63.2s-40.8,33.9-40.8,63.2c0,5.9,0.8,11.8,2.3,17.4
	c9.5,3.7,22,5.9,38.5,5.9S216.4,354.5,226,350.8z"/>
</svg>
