<?xml version="1.0" encoding="utf-8"?>
<!-- Generator: Adobe Illustrator 24.2.0, SVG Export Plug-In . SVG Version: 6.00 Build 0)  -->
<svg version="1.1" id="Layer_1" xmlns="http://www.w3.org/2000/svg" xmlns:xlink="http://www.w3.org/1999/xlink" x="0px" y="0px"
	 viewBox="0 0 400 100" style="enable-background:new 0 0 400 100;" xml:space="preserve">
<style type="text/css">
	.st0{fill:#FFFFFF;}
	.st1{fill:#FFFFFF;stroke:#FFFFFF;stroke-miterlimit:10;}
	.st2{font-family:'Helvetica-Bold';}
	.st3{font-size:30.6536px;}
</style>
<path class="st0" d="M116.8,41.5c-2.4-0.2-4.7,0.8-6.3,2.5c-1.5,1.7-2.2,4-2.2,7.1s0.8,5.5,2.4,7.2c1.7,1.7,4.1,2.6,6.5,2.5
	c1.3,0,2.5-0.2,3.7-0.6c1-0.4,2-0.8,2.9-1.3c1.3,1,2,2.6,1.9,4.2c-0.1,1.6-1,3-2.4,3.7c-1.6,1-4.1,1.5-7.4,1.5c-2.3,0-4.5-0.3-6.7-1
	c-2-0.6-3.9-1.7-5.5-3.1c-1.6-1.5-2.9-3.3-3.7-5.3c-1-2.5-1.4-5.1-1.4-7.7c0-2.5,0.4-5,1.3-7.3c0.8-2,2-3.8,3.6-5.3
	c1.5-1.5,3.3-2.6,5.3-3.3c2.1-0.8,4.3-1.1,6.5-1.1c2.6-0.1,5.3,0.4,7.6,1.6c1.6,0.8,2.6,2.3,2.7,4.1c0,0.9-0.2,1.7-0.7,2.4
	c-0.4,0.6-1,1.2-1.6,1.6c-0.9-0.6-2-1.1-3-1.5C119.3,41.7,118.1,41.5,116.8,41.5z"/>
<path class="st0" d="M135.7,60v7.2c-0.4,0.1-0.9,0.2-1.3,0.2c-0.6,0.1-1.2,0.1-1.7,0.1c-0.5,0-1,0-1.5-0.1c-0.4-0.1-0.8-0.2-1.1-0.5
	c-0.3-0.2-0.5-0.6-0.6-0.9c-0.2-0.5-0.2-1-0.2-1.6V46.8c0-0.4,0.1-0.9,0.4-1.2c0.3-0.3,0.7-0.6,1.2-0.7c1-0.3,1.9-0.5,2.9-0.7
	c1.2-0.1,2.4-0.2,3.6-0.2c3.4,0,6,0.7,7.8,2.2c1.7,1.4,2.7,3.6,2.6,5.9c0,1.4-0.4,2.8-1.2,3.9c-0.7,1-1.7,1.9-2.8,2.5
	c0.9,1.2,1.8,2.4,2.6,3.4c0.8,0.9,1.5,1.9,2.1,2.9c-0.2,0.8-0.7,1.5-1.4,2c-0.6,0.5-1.4,0.7-2.2,0.7c-0.5,0-1-0.1-1.4-0.2
	c-0.4-0.1-0.7-0.3-1-0.5c-0.3-0.2-0.6-0.5-0.8-0.8c-0.3-0.3-0.5-0.7-0.7-1l-3.1-5L135.7,60z M138.1,55c0.8,0,1.6-0.2,2.2-0.7
	c0.6-0.6,0.9-1.3,0.8-2.2c0.1-0.8-0.3-1.6-0.9-2.2c-0.9-0.5-1.9-0.8-2.9-0.7c-0.4,0-0.7,0-0.9,0l-0.8,0.1V55H138.1z"/>
<path class="st0" d="M162.5,67.2c-0.4,0.1-0.8,0.2-1.3,0.2c-0.6,0.1-1.1,0.1-1.7,0.1c-0.9,0.1-1.8-0.1-2.6-0.6
	c-0.7-0.6-1-1.5-0.9-2.4v-5c-0.6-0.9-1.3-1.9-2-3.1c-0.7-1.1-1.4-2.3-2.1-3.4s-1.3-2.3-1.9-3.5c-0.5-1-1-2-1.4-3.1
	c0.4-0.5,0.8-0.9,1.3-1.2c0.6-0.4,1.3-0.6,2.1-0.6c0.8,0,1.7,0.2,2.4,0.6c0.8,0.6,1.4,1.4,1.7,2.2l3.1,6.2h0.2
	c0.4-0.8,0.6-1.5,0.9-2.1s0.5-1.3,0.8-1.9l0.8-2c0.3-0.7,0.6-1.5,0.9-2.4c0.5-0.2,1-0.4,1.5-0.5c0.5-0.1,1-0.2,1.6-0.2
	c0.8,0,1.6,0.2,2.2,0.7c0.6,0.5,1,1.3,0.9,2.1c0,0.4-0.1,0.7-0.2,1.1c-0.2,0.7-0.5,1.3-0.9,1.9c-0.4,0.9-1.1,2-2,3.5s-2,3.4-3.5,5.8
	L162.5,67.2z"/>
<path class="st0" d="M178.2,67.2c-0.4,0.1-0.9,0.2-1.3,0.2c-0.6,0.1-1.2,0.1-1.7,0.1c-0.5,0-1,0-1.5-0.1c-0.4-0.1-0.8-0.2-1.1-0.5
	c-0.3-0.2-0.5-0.6-0.7-0.9c-0.2-0.5-0.2-1-0.2-1.6V46.8c0-0.4,0.1-0.9,0.4-1.2c0.3-0.3,0.7-0.6,1.2-0.7c0.9-0.3,1.9-0.5,2.9-0.7
	c1.1-0.1,2.2-0.2,3.3-0.2c3.4,0,6.1,0.7,7.9,2.2c1.8,1.4,2.8,3.7,2.7,6c0,1.1-0.2,2.3-0.6,3.3c-0.4,1-1,1.8-1.7,2.5
	c-0.8,0.7-1.8,1.3-2.9,1.6c-1.3,0.4-2.6,0.6-4,0.6h-2.6L178.2,67.2z M180.1,55.2c0.9,0.1,1.7-0.2,2.4-0.7c1.1-1.2,1.1-3.2,0-4.4
	c-0.7-0.6-1.6-0.8-2.6-0.8c-0.4,0-0.7,0-1,0c-0.3,0-0.5,0-0.8,0.1v5.8L180.1,55.2z"/>
<path class="st0" d="M192.1,49.9c-0.2-0.3-0.4-0.7-0.5-1.1c-0.1-0.5-0.2-1-0.2-1.5c-0.1-0.8,0.2-1.5,0.6-2.1
	c0.5-0.4,1.1-0.7,1.7-0.6H210c0.2,0.4,0.4,0.7,0.5,1.1c0.1,0.5,0.2,1,0.2,1.5c0.1,0.8-0.2,1.5-0.6,2.1c-0.5,0.4-1.1,0.7-1.7,0.6
	h-4.2v17.2c-0.4,0.1-0.9,0.2-1.3,0.2c-0.6,0.1-1.2,0.1-1.7,0.1c-0.5,0-1,0-1.5-0.1c-0.4-0.1-0.8-0.2-1.1-0.5
	c-0.3-0.2-0.5-0.6-0.7-0.9c-0.2-0.5-0.2-1-0.2-1.6V49.9H192.1z"/>
<path class="st0" d="M211.4,56c0-1.8,0.3-3.5,0.9-5.2c1.1-2.8,3.4-5,6.2-6c3-1,6.3-1,9.3,0c1.4,0.5,2.7,1.3,3.8,2.3
	c1.1,1.1,2,2.3,2.5,3.8c0.6,1.6,0.9,3.4,0.9,5.1c0,1.8-0.3,3.5-0.9,5.2c-1.1,2.8-3.4,5.1-6.2,6.1c-1.5,0.5-3.1,0.8-4.7,0.8
	c-1.6,0-3.2-0.3-4.7-0.8c-1.4-0.5-2.7-1.3-3.7-2.3c-1.1-1.1-1.9-2.4-2.5-3.8C211.7,59.5,211.4,57.7,211.4,56z M218.1,56
	c-0.1,1.8,0.4,3.5,1.4,5c1.8,2,4.9,2.2,7,0.4c0.2-0.1,0.3-0.3,0.4-0.4c1-1.5,1.5-3.2,1.4-5c0.1-1.8-0.4-3.5-1.4-5
	c-0.9-1.1-2.3-1.7-3.7-1.7c-1.4-0.1-2.8,0.6-3.7,1.7C218.5,52.4,218,54.2,218.1,56z"/>
<path class="st0" d="M287.3,67.2c-0.4,0.1-0.8,0.2-1.3,0.2c-0.6,0.1-1.2,0.1-1.7,0.1c-0.5,0-1,0-1.5-0.1c-0.4-0.1-0.8-0.2-1.1-0.5
	c-0.3-0.2-0.5-0.5-0.7-0.9c-0.2-0.5-0.2-1-0.2-1.6V44.7l1.3-0.2c0.6-0.1,1.1-0.1,1.7-0.1c0.5,0,1,0,1.5,0.1c0.4,0.1,0.8,0.2,1.1,0.5
	c0.3,0.2,0.5,0.6,0.7,0.9c0.2,0.5,0.2,1,0.2,1.6L287.3,67.2z"/>
<path class="st0" d="M253.1,41.6c-0.3-0.5-0.6-1-0.8-1.6c-0.2-0.7-0.3-1.4-0.3-2.1c-0.1-1.1,0.2-2.2,1-3c0.7-0.6,1.6-1,2.6-0.9h24.9
	c0.7,1.1,1.1,2.4,1.1,3.8c0.1,1.1-0.3,2.2-1,3c-0.7,0.6-1.6,0.9-2.6,0.9h-6.3v24.8c-0.7,0.1-1.3,0.3-2,0.3c-0.9,0.1-1.8,0.2-2.7,0.2
	c-0.8,0-1.6-0.1-2.3-0.2c-0.6-0.1-1.2-0.3-1.7-0.7c-0.5-0.3-0.8-0.8-1-1.3c-0.3-0.7-0.4-1.5-0.3-2.3V41.6H253.1z"/>
<path class="st0" d="M318.9,47.2c-0.1-1.8,1.2-3.3,2.9-3.5c0.2,0,0.4,0,0.5,0h12.3c0.2,0.3,0.4,0.7,0.5,1.1c0.1,0.5,0.2,0.9,0.2,1.4
	c0.1,0.7-0.2,1.4-0.6,2c-0.4,0.4-1,0.6-1.6,0.6h-7.9v3.5h8.4c0.2,0.3,0.4,0.7,0.5,1.1c0.1,0.5,0.2,0.9,0.2,1.4
	c0.1,0.7-0.1,1.4-0.6,2c-0.4,0.4-1,0.6-1.6,0.6h-6.9v3.9h9.6c0.2,0.3,0.4,0.7,0.5,1.1c0.1,0.5,0.2,0.9,0.2,1.4
	c0.1,0.7-0.2,1.4-0.6,2c-0.4,0.4-1,0.6-1.6,0.6h-10.9c-1.8,0.1-3.3-1.2-3.5-2.9c0-0.1,0-0.3,0-0.4V47.2z"/>
<path class="st0" d="M371.6,57.3c-1.1-0.4-2.1-0.8-3-1.1c-0.8-0.3-1.6-0.8-2.3-1.4c-0.6-0.5-1.2-1.2-1.5-2c-0.4-0.9-0.6-1.8-0.5-2.8
	c0-2,0.9-3.8,2.5-5c2-1.4,4.4-2,6.9-1.9c1,0,2,0.1,3,0.2c0.8,0.1,1.6,0.3,2.4,0.7c0.6,0.3,1.1,0.7,1.5,1.2c0.4,0.5,0.6,1.1,0.5,1.7
	c0,0.6-0.1,1.2-0.4,1.7c-0.3,0.5-0.7,0.8-1.1,1.2c-0.7-0.4-1.4-0.7-2.2-0.9c-1-0.3-2-0.4-3-0.4c-0.8-0.1-1.7,0.1-2.5,0.5
	c-0.4,0.2-0.8,0.6-0.8,1.1c0,0.4,0.2,0.7,0.5,0.9c0.4,0.3,0.9,0.5,1.5,0.7l2,0.6c2,0.6,3.8,1.5,5.4,2.9c1.3,1.2,2,2.9,1.9,4.7
	c0,2-0.9,3.9-2.5,5.1c-1.7,1.3-4.1,2-7.4,2c-1.1,0-2.1-0.1-3.2-0.3c-0.9-0.2-1.8-0.4-2.6-0.8c-0.7-0.3-1.3-0.8-1.7-1.3
	c-0.4-0.5-0.6-1.2-0.6-1.8c0-0.7,0.2-1.3,0.6-1.8c0.4-0.5,0.9-0.9,1.4-1.2c0.8,0.6,1.6,1.1,2.5,1.4c1.1,0.4,2.2,0.6,3.3,0.6
	c0.9,0.1,1.8-0.1,2.6-0.6c0.4-0.3,0.7-0.8,0.7-1.3c0-0.5-0.2-0.9-0.6-1.1c-0.5-0.3-1.1-0.6-1.7-0.8L371.6,57.3z"/>
<text transform="matrix(1.0066 0 0 1 290.998 66.3574)" class="st1 st2 st3">G</text>
<path class="st0" d="M346.9,58.7v7.2c-0.4,0.1-0.9,0.2-1.3,0.2c-0.6,0.1-1.2,0.1-1.7,0.1c-0.5,0-1,0-1.5-0.1
	c-0.4-0.1-0.8-0.2-1.1-0.5c-0.3-0.2-0.5-0.6-0.6-0.9c-0.2-0.5-0.2-1-0.2-1.6V45.5c0-0.4,0.1-0.9,0.4-1.2c0.3-0.3,0.7-0.6,1.2-0.7
	c1-0.3,1.9-0.5,2.9-0.7c1.2-0.1,2.4-0.2,3.6-0.2c3.4,0,6,0.7,7.8,2.2c1.7,1.4,2.7,3.6,2.6,5.9c0,1.4-0.4,2.8-1.2,3.9
	c-0.7,1-1.7,1.9-2.8,2.5c0.9,1.2,1.8,2.4,2.6,3.4c0.8,0.9,1.5,1.9,2.1,2.9c-0.2,0.8-0.7,1.5-1.4,2c-0.6,0.5-1.4,0.7-2.2,0.7
	c-0.5,0-1-0.1-1.4-0.2c-0.4-0.1-0.7-0.3-1-0.5c-0.3-0.2-0.6-0.5-0.8-0.8c-0.3-0.3-0.5-0.7-0.7-1l-3.1-5L346.9,58.7z M349.2,53.7
	c0.8,0,1.6-0.2,2.2-0.7c0.6-0.6,0.9-1.3,0.8-2.2c0.1-0.8-0.3-1.6-0.9-2.2c-0.9-0.5-1.9-0.8-2.9-0.7c-0.4,0-0.7,0-0.9,0l-0.8,0.1v5.6
	H349.2z"/>
<g>
	<path class="st0" d="M46.7,65.5c2.2,1.8,2.9,4.5,1.5,5.9c-1.3,1.3-4.1,1-6.2-0.6c-0.6,0-1.3,0-1.8,0.1c-2.8,0.3-7.6,0.8-13.7-4.2
		c-0.1-0.1-0.3-0.3-0.5-0.4c-3.2-2.7-5-5.5-5.5-8.2c-0.2-0.9-0.2-1.8,0-2.5c0-0.1,0-0.1,0-0.2v0c0.3-1.1,1.3-1.8,2.6-1.8
		c1.4,0,3,0.6,4.3,1.7c1,0.9,1.7,1.9,1.9,2.9l0.4,1.6v0c0,0.2,0.4,0.7,1.4,1.6l0.2,0.2c1.4,1.2,2,1.2,4.4,1
		c2.3-0.2,6.1-0.6,10.5,2.7C46.4,65.2,46.5,65.3,46.7,65.5z"/>
	<path class="st0" d="M42.8,83h-2.1c-1.9,0-3.4-1.4-3.4-3.1V66c0-1.7,1.5-3.1,3.4-3.1h2.1c1.9,0,3.4,1.4,3.4,3.1v13.9
		C46.2,81.6,44.6,83,42.8,83z"/>
	<path class="st0" d="M63.7,83h-0.5c-2.3,0-4.2-1.7-4.2-3.7V66.7c0-2.1,1.9-3.7,4.2-3.7h0.5c2.3,0,4.2,1.7,4.2,3.7v12.5
		C67.9,81.3,66,83,63.7,83z"/>
	<path class="st0" d="M75.9,45c5.1-9.9-0.6-21.3-8.7-26.7c-6.4-4.3-13.6-4.4-15.9-4.4c-2,0-8.7,0.3-14.6,4.4
		c-7.9,5.5-12.8,16.8-7.6,26.5c6.2,11.7,22.1,12,23.4,12C53.4,56.8,69.9,56.6,75.9,45z"/>
	<path class="st0" d="M38.8,27.1c2-4.4-0.3-9.5-3.3-12c-2.4-1.9-5.2-2-6.1-2c-0.8,0-3.3,0.1-5.6,2c-3,2.5-4.9,7.6-2.9,11.9
		c1.1,2.4,2.9,3.7,4.6,4.4c2.6,1.1,5.6,1.2,8.3,0.2C35.7,30.9,37.7,29.6,38.8,27.1z"/>
	<path class="st0" d="M62.2,78.2H43.1c-3.1,0-5.6-2.3-5.6-5.1V52.5c0-2.8,2.5-5.1,5.6-5.1h19.1c3.1,0,5.6,2.3,5.6,5.1v20.7
		C67.9,76,65.3,78.2,62.2,78.2z"/>
	<path class="st0" d="M58.5,74.7c0.2-0.8,0.4-1.7,0.4-2.6c0-4.3-2.8-9.3-6.3-9.3c-3.5,0-6.3,5-6.3,9.3c0,0.9,0.1,1.7,0.4,2.6
		c1.5,0.6,3.4,0.9,6,0.9C55,75.6,57,75.2,58.5,74.7z"/>
	<path class="st0" d="M82.4,26.9c2-4.4-0.3-9.5-3.3-12c-2.4-1.9-5.2-2-6.1-2c-0.8,0-3.3,0.1-5.6,2c-3,2.5-4.9,7.6-2.9,11.9
		c1.1,2.4,2.9,3.7,4.6,4.4c2.6,1.1,5.6,1.2,8.3,0.2C79.2,30.7,81.3,29.4,82.4,26.9z"/>
	<path class="st0" d="M24.1,24.9c1.3,1.6,3.9,1.4,5.6,0.3c1.3-0.8,2-2.1,2.2-2.6c0.2-0.4,0.7-1.6,0.4-2.9c-0.3-1.8-2-3.5-4.2-3.2
		c-1.2,0.1-2.1,0.8-2.8,1.5c-1,1-1.7,2.5-1.9,3.9C23.2,22.9,23.3,24,24.1,24.9z"/>
	<path class="st0" d="M77.3,25.5c2.2-0.2,3.3-2.4,3.1-4.2c-0.1-1.4-1.1-2.6-1.4-3c-0.3-0.3-1.2-1.3-2.6-1.8
		c-1.9-0.6-4.3-0.2-5.2,1.6c-0.5,1-0.3,2.1,0,2.9c0.5,1.3,1.5,2.6,2.8,3.5C74.8,25.1,76,25.6,77.3,25.5z"/>
</g>
</svg>
