<?xml version="1.0" encoding="utf-8"?>
<svg version="1.1" id="Layer_1" xmlns="http://www.w3.org/2000/svg" xmlns:xlink="http://www.w3.org/1999/xlink" x="0px" y="0px"
	 viewBox="0 0 382.5 412.5" style="enable-background:new 0 0 382.5 412.5;" xml:space="preserve">
<path d="M235.4,397.9c-7.4,0-24.8,0-24.8-18.9c0-14.8,11.1-26.7,24.8-26.7s24.8,12,24.8,26.7C260.1,397.9,242.8,397.9,235.4,397.9z" class="main-fill"
	/>
<path d="M235.4,359.2c10.1,0,18.4,8.9,18.4,19.8c0,11-8.2,12-18.4,12s-18.4-1-18.4-12C217,368.1,225.2,359.2,235.4,359.2
	C235.4,359.2,235.4,359.2,235.4,359.2 M235.4,345.4c-17.2,0-31.2,15.1-31.2,33.6c0,10.4,4.7,18.7,12.9,22.7
	c5.9,2.9,12.5,3.1,18.3,3.1s12.4-0.2,18.3-3.1c8.2-4,12.9-12.3,12.9-22.7C266.5,360.5,252.6,345.4,235.4,345.4L235.4,345.4z" class="main-dark-fill"/>
<line x1="225.1" y1="393.4" x2="225.1" y2="383.7" class="main-stroke"/>
<line x1="235.4" y1="393.4" x2="235.4" y2="383.7" class="main-stroke"/>
<line x1="245.6" y1="393.4" x2="245.6" y2="383.7" class="main-stroke"/>
<path d="M146.7,397.9c-7.4,0-24.8,0-24.8-18.9c0-14.8,11.1-26.7,24.8-26.7s24.8,12,24.8,26.7C171.4,397.9,154.1,397.9,146.7,397.9z" class="main-fill"
	/>
<path d="M146.7,359.2c10.1,0,18.4,8.9,18.4,19.8c0,0,0,0,0,0c0,11-8.2,12-18.4,12c-10.2,0-18.4-1-18.4-12
	C128.3,368.1,136.5,359.2,146.7,359.2 M146.7,345.4c-17.2,0-31.2,15.1-31.2,33.6c0,10.4,4.7,18.7,12.9,22.7
	c5.9,2.9,12.5,3.1,18.3,3.1s12.4-0.2,18.3-3.1c8.2-4,12.9-12.3,12.9-22.7C177.8,360.5,163.9,345.4,146.7,345.4z" class="main-dark-fill"/>
<line x1="136.4" y1="393.4" x2="136.4" y2="383.7" class="main-stroke"/>
<line x1="146.7" y1="393.4" x2="146.7" y2="383.7" class="main-stroke"/>
<line x1="156.9" y1="393.4" x2="156.9" y2="383.7" class="main-stroke"/>
</svg>